<?xml version="1.0" encoding="UTF-8" standalone="no"?>
<svg width="371px" height="202px" viewBox="0 0 371 202" version="1.1" xmlns="http://www.w3.org/2000/svg" xmlns:xlink="http://www.w3.org/1999/xlink">
    <!-- Generator: Sketch 47.1 (45422) - http://www.bohemiancoding.com/sketch -->
    <title>Group 4</title>
    <desc>Created with Sketch.</desc>
    <defs>
        <rect id="path-1" x="0.28333516" y="0.31388914" width="221.819622" height="20.8305722"></rect>
        <rect id="path-3" x="0.28333516" y="0.31388914" width="221.819622" height="20.8305722"></rect>
        <rect id="path-5" x="0.91389042" y="0.46944562" width="200.336271" height="26.8500215"></rect>
        <rect id="path-7" x="0.91389042" y="0.46944562" width="200.336271" height="26.8500215"></rect>
        <rect id="path-9" x="0.91389042" y="0.42777812" width="200.336271" height="26.8500215"></rect>
        <rect id="path-11" x="0.91389042" y="0.42777812" width="200.336271" height="26.8500215"></rect>
        <rect id="path-13" x="0.91389042" y="0.16389062" width="200.336271" height="26.8500215"></rect>
        <rect id="path-15" x="0.91389042" y="0.16389062" width="200.336271" height="26.8500215"></rect>
    </defs>
    <g id="界面1" stroke="none" stroke-width="1" fill="none" fill-rule="evenodd">
        <g id="缺省页" transform="translate(-150.000000, -162.000000)">
            <g id="Group-4" transform="translate(150.000000, 163.000000)">
                <path d="M75.4507752,76.77913 L75.4507752,11.0096329 C75.4507752,5.34296174 80.08689,0.70406914 85.756339,0.70406914 L286.967611,0.70406914 C292.634282,0.70406914 297.273175,5.34296174 297.273175,11.0096329 L297.273175,40.66799" id="Shape" stroke="#128BF7" stroke-width="2.77778"></path>
                <path d="M297.270397,137.89029 L297.270397,188.312553 C297.270397,193.982002 292.634282,198.618116 286.964833,198.618116 L85.7535612,198.618116 C80.08689,198.618116 75.4479974,193.982002 75.4479974,188.312553 L75.4479974,151.77919" id="Shape" stroke="#128BF7" stroke-width="2.77778"></path>
                <g id="Clipped" transform="translate(75.167440, 0.390180)">
                    <mask id="mask-2" fill="white">
                        <use xlink:href="#path-1"></use>
                    </mask>
                    <g id="Rectangle-path"></g>
                    <g id="Group" opacity="0.300003" mask="url(#mask-2)">
                        <g id="Clipped">
                            <mask id="mask-4" fill="white">
                                <use xlink:href="#path-3"></use>
                            </mask>
                            <g id="Rectangle-path"></g>
                            <path d="M0.28333516,21.1444614 L0.28333516,10.9166754 C0.28333516,5.08611518 5.05278342,0.31388914 10.8861214,0.31388914 L211.502949,0.31388914 C217.333509,0.31388914 222.105735,5.08611518 222.105735,10.9166754 L222.105735,21.1444614 L0.28333516,21.1444614 L0.28333516,21.1444614 Z" id="Shape" fill="#128BF7" mask="url(#mask-4)"></path>
                        </g>
                    </g>
                </g>
                <path d="M75.4507752,11.3068554 C75.4507752,5.47629518 80.2202234,0.70406914 86.0535614,0.70406914 L286.670389,0.70406914 C292.500949,0.70406914 297.273175,5.47629518 297.273175,11.3068554 L297.273175,21.5346414 L75.4507752,21.5346414 L75.4507752,11.3068554 Z" id="Shape" stroke="#128BF7" stroke-width="2.77778"></path>
                <path d="M91.311899,11.1207441 C91.311899,12.4151896 90.2618981,13.4651905 88.9674526,13.4651905 C87.6702294,13.4651905 86.6202285,12.4151896 86.6202285,11.1207441 C86.6202285,9.82629866 87.6702294,8.77629782 88.9674526,8.77629782 C90.2618981,8.77629782 91.311899,9.82629866 91.311899,11.1207441" id="Shape" fill="#128BF7"></path>
                <path d="M100.684129,11.1207441 C100.684129,12.4151896 99.6341278,13.4651905 98.3396824,13.4651905 C97.0424591,13.4651905 95.9924583,12.4151896 95.9924583,11.1207441 C95.9924583,9.82629866 97.0424591,8.77629782 98.3396824,8.77629782 C99.6341278,8.77629782 100.684129,9.82629866 100.684129,11.1207441" id="Shape" fill="#128BF7"></path>
                <g id="Clipped" transform="translate(85.278560, 37.501320)">
                    <mask id="mask-6" fill="white">
                        <use xlink:href="#path-5"></use>
                    </mask>
                    <g id="Rectangle-path"></g>
                    <g id="Group" opacity="0.300003" mask="url(#mask-6)">
                        <g transform="translate(0.000000, -0.000000)" id="Clipped">
                            <g transform="translate(0.000000, -0.000000)">
                                <mask id="mask-8" fill="white">
                                    <use xlink:href="#path-7"></use>
                                </mask>
                                <g id="Rectangle-path"></g>
                                <path d="M194.539045,27.3194671 L7.62778468,27.3194671 C3.93611506,27.3194671 0.91389042,24.3000202 0.91389042,20.6055728 L0.91389042,7.1805621 C0.91389042,3.48889248 3.93611506,0.46666784 7.62778468,0.46666784 L194.539045,0.46666784 C198.230715,0.46666784 201.25294,3.48889248 201.25294,7.1805621 L201.25294,20.6055728 C201.25294,24.3000202 198.230715,27.3194671 194.539045,27.3194671" id="Shape" fill="#128BF7" mask="url(#mask-8)"></path>
                            </g>
                        </g>
                    </g>
                </g>
                <g id="Clipped" transform="translate(85.278560, 83.723580)">
                    <mask id="mask-10" fill="white">
                        <use xlink:href="#path-9"></use>
                    </mask>
                    <g id="Rectangle-path"></g>
                    <g id="Group" opacity="0.300003" mask="url(#mask-10)">
                        <g id="Clipped">
                            <mask id="mask-12" fill="white">
                                <use xlink:href="#path-11"></use>
                            </mask>
                            <g id="Rectangle-path"></g>
                            <path d="M194.539045,27.2777996 L7.62778468,27.2777996 C3.93611506,27.2777996 0.91389042,24.2583527 0.91389042,20.5639053 L0.91389042,7.1388946 C0.91389042,3.44722498 3.93611506,0.42500034 7.62778468,0.42500034 L194.539045,0.42500034 C198.230715,0.42500034 201.25294,3.44722498 201.25294,7.1388946 L201.25294,20.5639053 C201.25294,24.2583527 198.230715,27.2777996 194.539045,27.2777996" id="Shape" fill="#128BF7" mask="url(#mask-12)"></path>
                        </g>
                    </g>
                </g>
                <g id="Clipped" transform="translate(85.278560, 130.168060)">
                    <mask id="mask-14" fill="white">
                        <use xlink:href="#path-13"></use>
                    </mask>
                    <g id="Rectangle-path"></g>
                    <g id="Group" opacity="0.300003" mask="url(#mask-14)">
                        <g transform="translate(0.000000, -0.000000)" id="Clipped">
                            <g transform="translate(0.000000, -0.000000)">
                                <mask id="mask-16" fill="white">
                                    <use xlink:href="#path-15"></use>
                                </mask>
                                <g id="Rectangle-path"></g>
                                <path d="M194.539045,27.0139121 L7.62778468,27.0139121 C3.93611506,27.0139121 0.91389042,23.9944652 0.91389042,20.3000178 L0.91389042,6.8750071 C0.91389042,3.18333748 3.93611506,0.16111284 7.62778468,0.16111284 L194.539045,0.16111284 C198.230715,0.16111284 201.25294,3.18333748 201.25294,6.8750071 L201.25294,20.3000178 C201.25294,23.9944652 198.230715,27.0139121 194.539045,27.0139121" id="Shape" fill="#128BF7" mask="url(#mask-16)"></path>
                            </g>
                        </g>
                    </g>
                </g>
                <path d="M110.059136,11.1207441 C110.059136,12.4151896 109.009135,13.4651905 107.71469,13.4651905 C106.417467,13.4651905 105.367466,12.4151896 105.367466,11.1207441 C105.367466,9.82629866 106.417467,8.77629782 107.71469,8.77629782 C109.009135,8.77629782 110.059136,9.82629866 110.059136,11.1207441" id="Shape" fill="#128BF7"></path>
                <path d="M343.092656,40.66799 L254.623141,40.66799 C239.345351,40.66799 224.55645,53.2707779 224.55645,68.5485679 L224.55645,108.959711 C224.55645,124.237501 237.05646,137.89029 252.33425,137.89029 L252.33425,163.126421 L281.964829,137.89029 L343.092656,137.89029 C358.370446,137.89029 369.00101,124.237501 369.00101,108.959711 L369.00101,68.5485679 C369.00101,53.2707779 358.370446,40.66799 343.092656,40.66799 L343.092656,40.66799 Z" id="Shape" stroke="#128BF7" stroke-width="2.77778" fill="#FFFFFF"></path>
                <path d="M67.0479907,76.77913 L136.236935,76.77913 C148.184167,76.77913 155.11195,86.0485819 155.11195,97.9958136 L155.11195,129.601394 C155.11195,141.040293 146.85361,150.554189 135.664712,151.343079 L135.66749,151.395856 L135.66749,171.962539 L114.853584,151.77919 L67.0479907,151.77919 C55.1007589,151.77919 44.00075,141.548626 44.00075,129.601394 L44.00075,97.9958136 C44.00075,86.0485819 55.1007589,76.77913 67.0479907,76.77913 L67.0479907,76.77913 Z" id="Shape" stroke="#266CD3" stroke-width="2.77778" fill="#FFFFFF"></path>
                <path d="M67.0479907,76.77913 L136.236935,76.77913 C148.184167,76.77913 155.11195,86.0485819 155.11195,97.9958136 L155.11195,129.601394 C155.11195,141.040293 146.85361,150.554189 135.664712,151.343079 L135.66749,151.395856 L135.66749,171.962539 L114.853584,151.77919 L67.0479907,151.77919 C55.1007589,151.77919 44.00075,141.548626 44.00075,129.601394 L44.00075,97.9958136 C44.00075,86.0485819 55.1007589,76.77913 67.0479907,76.77913 L67.0479907,76.77913 Z" id="Shape" stroke="#128BF7" stroke-width="2.77778"></path>
                <path d="M13.0173919,0.32629106 L13.0173919,26.3652008" id="Shape" stroke="#128BF7" stroke-width="2.77778"></path>
                <path d="M0.0007148,13.3457459 L26.0396245,13.3457459" id="Shape" stroke="#128BF7" stroke-width="2.77778"></path>
                <path d="M57.7035267,43.8902132 L57.7035267,59.4791146" id="Shape" stroke="#128BF7" stroke-width="2.77778"></path>
                <path d="M49.9090761,51.6846639 L65.4979774,51.6846639" id="Shape" stroke="#128BF7" stroke-width="2.77778"></path>
                <path d="M321.703527,3.8902132 L321.703527,19.4791146" id="Shape" stroke="#128BF7" stroke-width="2.77778"></path>
                <path d="M313.909076,11.6846639 L329.497977,11.6846639" id="Shape" stroke="#128BF7" stroke-width="2.77778"></path>
                <path d="M27,159 L27,176" id="Shape" stroke="#128BF7" stroke-width="2.77778"></path>
                <path d="M18,168 L35,168" id="Shape" stroke="#128BF7" stroke-width="2.77778"></path>
                <path d="M352.100996,164.498645 L352.100996,190.537554" id="Shape" stroke="#128BF7" stroke-width="2.77778"></path>
                <path d="M339.081542,177.518099 L365.120451,177.518099" id="Shape" stroke="#128BF7" stroke-width="2.77778"></path>
                <path d="M283,78.5003516 C283,80.9857779 280.985075,83 278.500352,83 C276.014925,83 274,80.9857779 274,78.5003516 C274,76.0149254 276.014925,74 278.500352,74 C280.985075,74 283,76.0149254 283,78.5003516" id="Fill-7" fill="#128BF7"></path>
                <path d="M323,78.5003516 C323,80.9857779 320.985075,83 318.500352,83 C316.014925,83 314,80.9857779 314,78.5003516 C314,76.0149254 316.014925,74 318.500352,74 C320.985075,74 323,76.0149254 323,78.5003516" id="Fill-8" fill="#128BF7"></path>
                <path d="M298.499659,113 C294.909826,113 292,109.194552 292,104.5 C292,99.8054481 294.909826,96 298.499659,96 C302.089491,96 305,99.8054481 305,104.5 C305,109.194552 302.089491,113 298.499659,113 Z" id="Fill-9" fill="#128BF7"></path>
                <path d="M88.3166667,110.97 C87.8046667,110.97 87.2926667,110.774667 86.9026667,110.384 L80.3026667,103.784667 C79.5213333,103.004 79.5213333,101.737333 80.3026667,100.956667 C81.084,100.175333 82.3493333,100.175333 83.1306667,100.956667 L89.7306667,107.556 C90.512,108.336667 90.512,109.603333 89.7306667,110.384 C89.34,110.774667 88.828,110.97 88.3166667,110.97" id="Fill-4" fill="#128BF7"></path>
                <path d="M81.7166667,110.97 C81.2053333,110.97 80.6933333,110.774667 80.3026667,110.384 C79.5213333,109.603333 79.5213333,108.336667 80.3026667,107.556 L86.9026667,100.956667 C87.6833333,100.175333 88.9493333,100.175333 89.7306667,100.956667 C90.512,101.737333 90.512,103.004 89.7306667,103.784667 L83.1306667,110.384 C82.74,110.774667 82.2286667,110.97 81.7166667,110.97" id="Fill-6" fill="#128BF7"></path>
                <path d="M115.65,110.97 C115.138,110.97 114.626,110.774667 114.235333,110.384 L107.636,103.784667 C106.854667,103.004 106.854667,101.737333 107.636,100.956667 C108.417333,100.175333 109.682667,100.175333 110.464,100.956667 L117.064,107.556 C117.845333,108.336667 117.845333,109.603333 117.064,110.384 C116.673333,110.774667 116.161333,110.97 115.65,110.97" id="Fill-8" fill="#128BF7"></path>
                <path d="M109.05,110.97 C108.538,110.97 108.026667,110.774667 107.636,110.384 C106.854667,109.603333 106.854667,108.336667 107.636,107.556 L114.235333,100.956667 C115.016667,100.175333 116.282667,100.175333 117.064,100.956667 C117.845333,101.737333 117.845333,103.004 117.064,103.784667 L110.464,110.384 C110.073333,110.774667 109.562,110.97 109.05,110.97" id="Fill-10" fill="#128BF7"></path>
                <path d="M108.433333,132.159333 C105.292667,132.159333 102.833333,130.214667 102.833333,127.732667 L102.833333,121.968667 C102.833333,120.864 103.728667,119.968667 104.833333,119.968667 C105.938,119.968667 106.833333,120.864 106.833333,121.968667 L106.833333,127.646667 C106.968667,127.808667 107.51,128.159333 108.433333,128.159333 C109.356,128.159333 109.897333,127.808667 110.033333,127.646667 L110.033333,121.968667 C110.033333,120.864 110.928,119.968667 112.033333,119.968667 C113.138,119.968667 114.033333,120.864 114.033333,121.968667 L114.033333,127.732667 C114.033333,130.214667 111.573333,132.159333 108.433333,132.159333" id="Fill-12" fill="#128BF7"></path>
                <path d="M114.333333,123.666667 L83.6666667,123.666667 C82.562,123.666667 81.6666667,122.771333 81.6666667,121.666667 C81.6666667,120.562 82.562,119.666667 83.6666667,119.666667 L114.333333,119.666667 C115.438,119.666667 116.333333,120.562 116.333333,121.666667 C116.333333,122.771333 115.438,123.666667 114.333333,123.666667" id="Fill-14" fill="#128BF7"></path>
            </g>
        </g>
    </g>
</svg>