<?xml version="1.0" encoding="UTF-8" standalone="no"?>
<svg width="409px" height="238px" viewBox="0 0 409 238" version="1.1" xmlns="http://www.w3.org/2000/svg" xmlns:xlink="http://www.w3.org/1999/xlink">
    <!-- Generator: Sketch 47.1 (45422) - http://www.bohemiancoding.com/sketch -->
    <title>Group 5</title>
    <desc>Created with Sketch.</desc>
    <defs>
        <rect id="path-1" x="0.648362566" y="0.637807525" width="109.547764" height="8.23926359"></rect>
        <rect id="path-3" x="0.648362566" y="0.637807525" width="109.547764" height="8.23926359"></rect>
        <rect id="path-5" x="0.0912184918" y="0" width="198.9225" height="26.5734808"></rect>
        <rect id="path-7" x="0.0912184918" y="0" width="198.9225" height="26.5734808"></rect>
        <path d="M332.3,48.8752069 L332.3,26.6 L332.3,23.4355172 C332.3,10.5138793 320.9495,0 307,0 C293.0505,0 281.7,10.5138793 281.7,23.4355172 L281.7,48.8752069 C269.2432,57.0891034 261,71.1641724 261,87.137931 C261,112.426276 281.6356,133 307,133 C332.3644,133 353,112.426276 353,87.137931 C353,71.1641724 344.7568,57.0891034 332.3,48.8752069 Z M307,128.413793 C284.1725,128.413793 265.6,109.896983 265.6,87.137931 C265.6,72.1479138 273.6845,59.0359483 285.7089,51.8057931 C287.8249,50.5354138 290.0352,49.4645345 292.3168,48.5931552 C292.7216,48.4395172 293.1287,48.2881724 293.5381,48.146 C294.166,47.9281552 294.7962,47.7194828 295.4333,47.5314483 C296.2153,47.304431 297.0088,47.1026379 297.8092,46.9214828 C298.3934,46.7884828 298.9799,46.6715345 299.5687,46.5637586 C300.4174,46.4101207 301.273,46.2725345 302.1401,46.1716379 C302.5311,46.1234828 302.9244,46.0822069 303.3177,46.0478103 C304.5344,45.9400345 305.758,45.862069 307,45.862069 C308.242,45.862069 309.4656,45.9400345 310.6823,46.0478103 C311.0756,46.0845 311.4666,46.1257759 311.8599,46.1716379 C312.727,46.2725345 313.5826,46.4101207 314.4313,46.5637586 C315.0201,46.6715345 315.6066,46.7884828 316.1908,46.9214828 C316.9912,47.1026379 317.7847,47.304431 318.5667,47.5314483 C319.2038,47.7171897 319.834,47.9281552 320.4619,48.146 C320.8736,48.2881724 321.2784,48.4395172 321.6832,48.5931552 C323.9648,49.4645345 326.1751,50.5354138 328.2911,51.8057931 C340.3155,59.0359483 348.4,72.1479138 348.4,87.137931 C348.4,109.896983 329.8275,128.413793 307,128.413793 Z" id="path-9"></path>
        <path d="M307.377049,133 C282.221061,133 261.754098,112.43739 261.754098,87.1638418 C261.754098,70.517677 270.663247,55.9570574 283.914179,47.9280904 C286.246019,46.5173553 288.681778,45.3281616 291.196109,44.3605094 C291.6422,44.189897 292.090826,44.0218311 292.541986,43.863951 C293.233934,43.622038 293.928417,43.3903107 294.630504,43.1815016 C295.49227,42.9294027 296.36671,42.7053148 297.248754,42.504145 C297.892545,42.3564507 298.53887,42.2265816 299.18773,42.1068983 C300.123,41.9362859 301.065874,41.7834987 302.021422,41.6714548 C302.452305,41.6179793 302.885723,41.5721431 303.319141,41.5339463 C304.659949,41.414263 306.008361,41.3276836 307.377049,41.3276836 C308.745738,41.3276836 310.094149,41.414263 311.434957,41.5339463 C311.868375,41.5746896 312.299259,41.6205257 312.732677,41.6714548 C313.688224,41.7834987 314.631098,41.9362859 315.566369,42.1068983 C316.215229,42.2265816 316.861554,42.3564507 317.505344,42.504145 C318.387388,42.7053148 319.261828,42.9294027 320.123595,43.1815016 C320.825681,43.3877643 321.520164,43.622038 322.212112,43.863951 C322.665807,44.0218311 323.111898,44.189897 323.557989,44.3605094 C326.072321,45.3281616 328.508079,46.5173553 330.839919,47.9280904 C344.090852,55.9570574 353,70.517677 353,87.1638418 C353,112.43739 332.533037,133 307.377049,133 Z" id="path-10"></path>
        <path d="M312.810781,86.5847646 L312.810781,79.7164453 C312.810781,76.7788172 310.712041,74.3898305 308.131316,74.3898305 C305.550591,74.3898305 303.451851,76.7788172 303.451851,79.7164453 L303.451851,86.5863257 C302.874767,87.3875472 302.457797,88.2945958 302.264009,89.2553814 L301.29722,94.0486345 C300.639002,97.3120195 302.794309,99.9378531 306.106341,99.9378531 L310.156292,99.9378531 C313.467871,99.9378531 315.621441,97.3011601 314.965413,94.0486345 L313.998624,89.2553814 C313.804449,88.2926773 313.387431,87.3854568 312.810781,86.5847646 Z" id="path-11"></path>
    </defs>
    <g id="界面1" stroke="none" stroke-width="1" fill="none" fill-rule="evenodd">
        <g id="缺省页" transform="translate(-596.000000, -125.000000)">
            <g id="Group-5" transform="translate(596.000000, 125.000000)">
                <path d="M215.236025,10 L215.236025,26.4826008" id="Shape" stroke="#128BF7" stroke-width="2.77778"></path>
                <path d="M223.496701,18.2289855 L207,18.2289855" id="Shape" stroke="#128BF7" stroke-width="2.77778"></path>
                <path d="M19.5,193 L19.5,203.71737" id="Shape" stroke="#128BF7" stroke-width="2.77778"></path>
                <path d="M24.7173697,198.5 L14,198.5" id="Shape" stroke="#128BF7" stroke-width="2.77778"></path>
                <path d="M395.5,129 L395.5,139.71737" id="Shape" stroke="#128BF7" stroke-width="2.77778"></path>
                <path d="M400.71737,134.5 L390,134.5" id="Shape" stroke="#128BF7" stroke-width="2.77778"></path>
                <path d="M69.6956939,220.044238 C67.1416572,216.995408 65.5474529,213.080589 65.5474529,208.800131 L65.5474529,70.964976 C65.5474529,61.2631538 73.4384885,53.3977774 83.1719609,53.3977774 L256.901619,53.3977774 L268.398781,53.3977774 L275.184729,53.3977774 L278.32924,53.3977774" id="Shape" stroke="#128BF7" stroke-width="2.77778"></path>
                <path d="M336.391184,115.694579 L336.391184,121.898855 L336.391184,208.797382 C336.391184,213.099833 334.882482,216.989909 332.309139,220.044238" id="Shape" stroke="#128BF7" stroke-width="2.77778"></path>
                <path d="M325.696335,129.314024 L326.050921,191.90098 C326.050921,201.602803 318.159886,209.468179 308.426413,209.468179 L93.5094658,209.468179 C83.7759934,209.468179 75.8849578,201.602803 75.8849578,191.90098 L75.8849578,80.0042482 C75.8849578,70.302426 83.7759934,62.4370496 93.5094658,62.4370496 L175.748475,62.4370496 M168.617942,62.4370496 L268.890193,62.4370496" id="Shape" stroke="#128BF7" stroke-width="2.77778"></path>
                <path d="M356.34632,220.044238 L45.5923173,220.044238 C41.0248392,220.044238 37.3261748,223.733624 37.3261748,228.283501 C37.3261748,232.833378 41.0248392,236.522765 45.5923173,236.522765 L356.34632,236.522765 C360.91104,236.522765 364.612462,232.833378 364.612462,228.283501 C364.612462,223.733624 360.91104,220.044238 356.34632,220.044238 L356.34632,220.044238 Z" id="Shape" stroke="#128BF7" stroke-width="2.77778"></path>
                <g id="Clipped" transform="translate(145.547074, 219.406430)">
                    <mask id="mask-2" fill="white">
                        <use xlink:href="#path-1"></use>
                    </mask>
                    <g id="Rectangle-path"></g>
                    <g id="Group" opacity="0.300003" mask="url(#mask-2)">
                        <g id="Clipped">
                            <mask id="mask-4" fill="white">
                                <use xlink:href="#path-3"></use>
                            </mask>
                            <g id="Rectangle-path"></g>
                            <path d="M106.064434,8.87707111 L4.78005476,8.87707111 C2.50734824,8.87707111 0.648362566,7.02413029 0.648362566,4.75606473 C0.648362566,2.49074835 2.50734824,0.637807525 4.78005476,0.637807525 L106.064434,0.637807525 C108.337141,0.637807525 110.198885,2.49074835 110.198885,4.75606473 C110.198885,7.02413029 108.337141,8.87707111 106.064434,8.87707111" id="Shape" fill="#128BF7" mask="url(#mask-4)"></path>
                        </g>
                    </g>
                </g>
                <path d="M150.327129,228.283501 C148.054422,228.283501 146.195437,226.43056 146.195437,224.162495 C146.195437,221.897178 148.054422,220.044238 150.327129,220.044238 L251.611508,220.044238 C253.884215,220.044238 255.745959,221.897178 255.745959,224.162495 C255.745959,226.43056 253.884215,228.283501 251.611508,228.283501 L150.327129,228.283501 Z" id="Shape" stroke="#128BF7" stroke-width="2.77778"></path>
                <path d="M102.327236,91.5700079 L242.773507,91.5700079" id="Shape" stroke="#128BF7" stroke-width="2.77778"></path>
                <path d="M102.327236,113.563371 L253.319385,113.563371" id="Shape" stroke="#128BF7" stroke-width="2.77778"></path>
                <path d="M13.2034913,47.0691872 L13.2034913,72.8399102" id="Shape" stroke="#128BF7" stroke-width="2.77778"></path>
                <path d="M26.1308887,59.9545487 L0.276093904,59.9545487" id="Shape" stroke="#128BF7" stroke-width="2.77778"></path>
                <path d="M34.4053056,104.474614 L34.4053056,119.902958" id="Shape" stroke="#128BF7" stroke-width="2.77778"></path>
                <path d="M42.1446436,112.188786 L26.6659677,112.188786" id="Shape" stroke="#128BF7" stroke-width="2.77778"></path>
                <path d="M376.965893,181.671256 L376.965893,197.0996" id="Shape" stroke="#128BF7" stroke-width="2.77778"></path>
                <path d="M384.705231,189.385428 L369.226555,189.385428" id="Shape" stroke="#128BF7" stroke-width="2.77778"></path>
                <path d="M382.752668,61.8781967 C375.162842,63.9280896 367.340077,59.4715852 365.278505,51.9247589 C363.216932,44.3791711 367.698828,36.5994869 375.288654,34.5495939 C382.877234,32.5009396 390.701244,36.9562054 392.762817,44.5030317 C394.823144,52.0498581 390.342493,59.8283037 382.752668,61.8781967 M401.876088,46.3832356 L405.760066,45.3341364 L403.273723,36.2303823 L398.805529,37.4367845 C397.5499,35.1701356 396.106177,33.4063606 394.470621,31.9410897 L396.733991,27.7149661 L388.380574,22.8720166 L386.086062,26.838033 C383.547401,26.0366549 380.723482,25.6551643 378.130012,25.75673 L377.051267,21.8068154 L368.506018,24.1143384 L369.584762,28.0642529 C366.074483,29.6100332 364.607092,31.0988376 362.824548,33.065744 L358.578083,30.8127197 L353.710031,39.1188115 L357.819474,41.8387902 C357.153044,43.9246027 356.755677,46.1862973 356.825434,48.7737452 L352.003472,50.0755201 L354.489816,59.1792742 L358.728808,58.0348023 C360.026789,60.9430491 361.851685,63.1997893 364.166127,65.2707385 L361.799367,69.1228031 L370.101712,73.7774845 L372.804802,69.6021437 C375.342217,70.4022831 377.352718,70.9039186 381.168184,70.4716451 L382.430041,75.0941227 L390.97529,72.7865997 L389.712188,68.1641221 C392.001717,66.947811 394.257613,65.247205 396.040157,63.2802987 L400.069877,65.5915374 L404.829556,57.3151722 L400.870838,55.3594133 C401.813805,52.4078152 402.234839,49.5441581 401.876088,46.3832356" id="Shape" stroke="#128BF7" stroke-width="3" fill="#B8DCFD" transform="translate(378.881769, 48.450469) rotate(-19.000000) translate(-378.881769, -48.450469) "></path>
                <path d="M102.327236,138.305904 L278.200383,138.305904" id="Shape" stroke="#128BF7" stroke-width="2.77778"></path>
                <g id="Clipped" transform="translate(101.416850, 161.673852)">
                    <mask id="mask-6" fill="white">
                        <use xlink:href="#path-5"></use>
                    </mask>
                    <g id="Rectangle-path"></g>
                    <g id="Group" opacity="0.300003" mask="url(#mask-6)">
                        <g id="Clipped">
                            <mask id="mask-8" fill="white">
                                <use xlink:href="#path-7"></use>
                            </mask>
                            <g id="Rectangle-path"></g>
                            <path d="M192.347296,26.5734808 L6.75764041,26.5734808 C3.0920737,26.5734808 0.0912184918,23.5851326 0.0912184918,19.928736 L0.0912184918,6.64199561 C0.0912184918,2.98834819 3.0920737,-0.00274917037 6.75764041,-0.00274917037 L192.347296,-0.00274917037 C196.012863,-0.00274917037 199.013718,2.98834819 199.013718,6.64199561 L199.013718,19.928736 C199.013718,23.5851326 196.012863,26.5734808 192.347296,26.5734808" id="Shape" fill="#128BF7" mask="url(#mask-8)"></path>
                        </g>
                    </g>
                </g>
                <g id="Shape">
                    <use fill="#FFFFFF" fill-rule="evenodd" xlink:href="#path-9"></use>
                    <path stroke="#128BF7" stroke-width="5" d="M329.8,23.4355172 L329.8,50.2213046 L330.923781,50.962315 C343.049296,58.9577657 350.5,72.4308232 350.5,87.137931 C350.5,111.043881 330.985366,130.5 307,130.5 C283.014634,130.5 263.5,111.043881 263.5,87.137931 C263.5,72.4308232 270.950704,58.9577657 283.076219,50.962315 L284.2,50.2213046 L284.2,23.4355172 C284.2,11.9392085 294.390217,2.5 307,2.5 C319.609783,2.5 329.8,11.9392085 329.8,23.4355172 Z M307,130.913793 C282.793466,130.913793 263.1,111.279378 263.1,87.137931 C263.1,71.6483574 271.305272,57.5494183 284.42208,49.6624091 C286.652036,48.3236141 288.993236,47.1863562 291.429694,46.2558397 C291.926477,46.0672905 292.325021,45.9208103 292.718662,45.7841108 C293.458079,45.5275759 294.099224,45.318577 294.736317,45.1305704 C295.546767,44.8952939 296.385399,44.6805003 297.254246,44.4838557 C297.841824,44.3500865 298.452053,44.2266173 299.12337,44.1037422 C300.12107,43.9231311 300.99589,43.7879114 301.834511,43.6903851 C302.253184,43.6388218 302.675707,43.5944141 303.097113,43.5575611 C304.556475,43.4282902 305.788428,43.362069 307,43.362069 C308.211572,43.362069 309.443525,43.4282902 310.914509,43.5586179 C311.322162,43.5966465 311.731991,43.6397832 312.148853,43.6883928 C313.00411,43.7879114 313.87893,43.9231311 314.881429,44.1046158 C315.547947,44.2266173 316.158176,44.3500865 316.742669,44.4831553 C317.614601,44.6805003 318.453233,44.8952939 319.266424,45.1313678 C319.880504,45.3103978 320.493546,45.5107926 321.277938,45.7829338 C321.666622,45.9171581 322.041368,46.0550867 322.575153,46.2576853 C325.006764,47.1863562 327.347964,48.3236141 329.579372,49.6632814 C342.694728,57.5494183 350.9,71.6483574 350.9,87.137931 C350.9,111.279378 331.206534,130.913793 307,130.913793 Z"></path>
                </g>
                <g id="Path" opacity="0.3">
                    <use fill="#128BF7" fill-rule="evenodd" xlink:href="#path-10"></use>
                    <path stroke="#128BF7" stroke-width="4" d="M307.377049,131 C331.426375,131 351,111.334903 351,87.1638418 C351,71.6581785 342.84755,57.5422112 329.804658,49.6392991 C327.587401,48.297885 325.259109,47.158194 322.843538,46.2285458 C322.301807,46.0213549 321.928263,45.8828107 321.552065,45.7518963 C320.752898,45.4724986 320.14662,45.2727897 319.562055,45.1010518 C318.763385,44.867411 317.931196,44.6526276 317.058135,44.4535048 C316.481818,44.3212899 315.87488,44.1975416 315.207451,44.0744293 C314.199818,43.8906166 313.331597,43.7553841 312.499271,43.6577886 C312.07516,43.6079531 311.659975,43.5639164 311.25714,43.5260259 C309.77792,43.3939876 308.553845,43.3276836 307.377049,43.3276836 C306.200254,43.3276836 304.976178,43.3939876 303.494719,43.5262245 C303.082925,43.5625156 302.673134,43.6059165 302.254339,43.6578459 C301.422501,43.7553841 300.55428,43.8906166 299.550513,44.0737201 C298.879218,44.1975416 298.272281,44.3212899 297.693479,44.4540732 C296.822903,44.6526276 295.990714,44.867411 295.200647,45.0985141 C294.590153,45.2800825 293.951654,45.4898203 293.20259,45.7517017 C292.819069,45.885912 292.419263,46.033987 291.914457,46.2270509 C289.49499,47.158194 287.166697,48.297885 284.950603,49.6385948 C271.906548,57.5422112 263.754098,71.6581785 263.754098,87.1638418 C263.754098,111.334903 283.327723,131 307.377049,131 Z"></path>
                </g>
                <g id="Combined-Shape">
                    <use fill="#FFFFFF" fill-rule="evenodd" xlink:href="#path-11"></use>
                    <path stroke="#128BF7" stroke-width="3" d="M311.593589,87.4613732 L311.310781,87.0686879 L311.310781,79.7164453 C311.310781,77.5671246 309.837268,75.8898305 308.131316,75.8898305 C306.425365,75.8898305 304.951851,77.5671246 304.951851,79.7164453 L304.951851,87.0702856 L304.669005,87.462988 C304.20057,88.1133617 303.880866,88.8257764 303.734397,89.5519558 L302.767608,94.3452088 C302.29745,96.6762118 303.73829,98.4378531 306.106341,98.4378531 L310.156292,98.4378531 C312.519681,98.4378531 313.963825,96.6694791 313.495024,94.3452088 L312.528235,89.5519558 C312.381426,88.8240878 312.061769,88.1114529 311.593589,87.4613732 Z"></path>
                </g>
            </g>
        </g>
    </g>
</svg>