<?xml version="1.0" encoding="UTF-8" standalone="no"?>
<svg width="354px" height="234px" viewBox="0 0 354 234" version="1.1" xmlns="http://www.w3.org/2000/svg" xmlns:xlink="http://www.w3.org/1999/xlink">
    <!-- Generator: Sketch 47.1 (45422) - http://www.bohemiancoding.com/sketch -->
    <title>Group 6</title>
    <desc>Created with Sketch.</desc>
    <defs></defs>
    <g id="界面1" stroke="none" stroke-width="1" fill="none" fill-rule="evenodd">
        <g id="缺省页" transform="translate(-637.000000, -529.000000)">
            <g id="Group-6" transform="translate(637.000000, 531.000000)">
                <path d="M168,204.933484 C165.68,204.933484 164.133484,206.48 164.133484,208.8 C164.133484,211.12 165.68,212.666516 168,212.666516 C170.32,212.666516 171.866516,211.12 171.866516,208.8 C171.866516,206.48 170.32,204.933484 168,204.933484 Z" id="Shape" fill="#128BF7"></path>
                <path d="M168,185.6 C165.68,185.6 164.133484,187.146516 164.133484,189.466516 L164.133484,193.333031 C164.133484,195.653031 165.68,197.199547 168,197.199547 C170.32,197.199547 171.866516,195.653031 171.866516,193.333031 L171.866516,189.466516 C171.866516,187.146516 170.32,185.6 168,185.6 Z" id="Shape" fill="#128BF7"></path>
                <path d="M168,220.4 C165.68,220.4 164.133484,221.946516 164.133484,224.266516 L164.133484,228.133031 C164.133484,230.453031 165.68,231.999547 168,231.999547 C170.32,231.999547 171.866516,230.453031 171.866516,228.133031 L171.866516,224.266516 C171.866516,221.946516 170.32,220.4 168,220.4 Z" id="Shape" fill="#128BF7"></path>
                <path d="M191.2,181.733484 C188.88,181.733484 187.333484,183.28 187.333484,185.6 L187.333484,193.333484 C187.333484,195.653484 188.88,197.2 191.2,197.2 C193.52,197.2 195.066516,195.653484 195.066516,193.333484 L195.066516,185.6 C195.066516,183.28 193.52,181.733484 191.2,181.733484 Z" id="Shape" fill="#128BF7"></path>
                <path d="M191.2,204.933484 C188.88,204.933484 187.333484,206.48 187.333484,208.8 L187.333484,220.4 C187.333484,222.72 188.88,224.266516 191.2,224.266516 C193.52,224.266516 195.066516,222.72 195.066516,220.4 L195.066516,208.8 C195.066516,206.48 193.52,204.933484 191.2,204.933484 Z" id="Shape" fill="#128BF7"></path>
                <path d="M144.8,208.8 C142.48,208.8 140.933484,210.346516 140.933484,212.666516 L140.933484,224.266516 C140.933484,226.586516 142.48,228.133031 144.8,228.133031 C147.12,228.133031 148.666516,226.586516 148.666516,224.266516 L148.666516,212.666516 C148.666516,210.346516 147.12,208.8 144.8,208.8 Z" id="Shape" fill="#128BF7"></path>
                <path d="M144.8,181.733484 C142.48,181.733484 140.933484,183.28 140.933484,185.6 L140.933484,197.2 C140.933484,199.52 142.48,201.066516 144.8,201.066516 C147.12,201.066516 148.666516,199.52 148.666516,197.2 L148.666516,185.6 C148.666516,183.28 147.12,181.733484 144.8,181.733484 Z" id="Shape" fill="#128BF7"></path>
                <path d="M284,112.133484 C284,94.173875 247.524344,85.2486719 228.903172,82.0618438 C224.046578,55.5100781 201.287922,36.44575 171.866516,34.905125 L171.866516,23.2 L175.733031,23.2 L179.599547,19.3334844 L179.599547,3.86651563 L175.733484,0 L160.266969,0 L156.4,3.86651563 L156.4,19.3330313 L160.266516,23.1995469 L164.133031,23.1995469 L164.133031,34.9042188 C134.690781,36.44575 111.920344,55.5363594 107.0855,82.1175781 C88.4616094,85.5989375 52,94.1775 52,112.133484 C52,121.684906 62.8754531,129.411141 79.6886562,135.135922 C91.907625,160.686281 127.338828,177.866516 168,177.866516 C208.430984,177.866516 243.688187,160.879313 256.098828,135.207516 C273.032109,129.475484 284,121.724781 284,112.133484 Z M164.133484,7.73348437 L171.866969,7.73348437 L171.866969,15.4669687 L164.133484,15.4669687 L164.133484,7.73348437 L164.133484,7.73348437 Z" id="Shape" stroke="#128BF7" stroke-width="3" fill="#B8DCFD"></path>
                <path d="M217.229268,144.858537 C217.018315,144.901686 216.770006,144.925096 216.539899,144.957821 C216.031566,145.031036 215.519898,145.102587 215.006325,145.173583 C200.809215,147.116002 183.842891,148.253659 167.999773,148.253659 C158.414342,148.253659 148.564113,148.406463 140.273171,147.121951 C59.9219512,134.673171 54.1687281,123.36022 54.1687281,111.569818 C54.1687281,103.52337 65.5804878,90.5365854 106.321951,83.7463415 C106.321951,84.6931456 114.243902,84.5898272 114.243902,86.0097561 L125.560976,89.404878 L135.746341,92.0605962 C152.721951,93.9317073 175.356098,97.3268293 199.121951,92.0605962 L212.702439,89.404878 L221.756098,87.1414634 C221.756098,85.7215345 228.546341,84.2194662 228.546341,83.7463415 C269.287805,89.404878 281.830819,103.523924 281.830819,111.570373 C281.830819,121.847108 267.02439,134.673171 217.229268,144.858537 Z" id="Path" fill="#FFFFFF"></path>
                <path d="M78.0292683,135.804878 C101.226414,141.819121 125.560976,149.385366 168,149.385366 C210.439024,149.385366 233.641879,141.819121 256.839024,135.804878 L253.915523,136.822806" id="Path" stroke="#128BF7" stroke-width="3"></path>
                <path d="M228.546341,82.3403968 L215.636512,86.4069047 C185.014901,96.1886857 151.374442,96.1886857 120.753336,86.4069047 L107.843506,82.3403968" id="Path" stroke="#128BF7" stroke-width="3"></path>
                <path d="M168,119.866516 C165.68,119.866516 164.133484,121.413031 164.133484,123.733031 C164.133484,126.053031 165.68,127.599547 168,127.599547 C170.32,127.599547 171.866516,126.053031 171.866516,123.733031 C171.866516,121.413484 170.32,119.866516 168,119.866516 Z" id="Shape" fill="#128BF7"></path>
                <path d="M202.8,116 C200.48,116 198.933484,117.546516 198.933484,119.866516 C198.933484,122.186516 200.48,123.733031 202.8,123.733031 C205.12,123.733031 206.666516,122.186516 206.666516,119.866516 C206.666516,117.546516 205.12,116 202.8,116 Z" id="Shape" fill="#128BF7"></path>
                <path d="M233.733484,108.266516 C231.413484,108.266516 229.866969,109.813031 229.866969,112.133031 C229.866969,114.453031 231.413484,115.999547 233.733484,115.999547 C236.053484,115.999547 237.6,114.453031 237.6,112.133031 C237.6,109.813031 236.053484,108.266516 233.733484,108.266516 Z" id="Shape" fill="#128BF7"></path>
                <path d="M102.266516,108.266516 C99.9465156,108.266516 98.4,109.813031 98.4,112.133031 C98.4,114.453031 99.9465156,115.999547 102.266516,115.999547 C104.586516,115.999547 106.133031,114.453031 106.133031,112.133031 C106.133031,109.813031 104.586516,108.266516 102.266516,108.266516 Z" id="Shape" fill="#128BF7"></path>
                <path d="M133.2,116 C130.88,116 129.333484,117.546516 129.333484,119.866516 C129.333484,122.186516 130.88,123.733031 133.2,123.733031 C135.52,123.733031 137.066516,122.186516 137.066516,119.866516 C137.066516,117.546516 135.52,116 133.2,116 Z" id="Shape" fill="#128BF7"></path>
                <path d="M14.4444444,31 L14.4444444,59.9321219" id="Shape" stroke="#128BF7" stroke-width="2.77778"></path>
                <path d="M28.9321219,45.4444444 L0,45.4444444" id="Shape" stroke="#128BF7" stroke-width="2.77778"></path>
                <path d="M274.444444,166 L274.444444,194.932122" id="Shape" stroke="#128BF7" stroke-width="2.77778"></path>
                <path d="M288.932122,180.444444 L260,180.444444" id="Shape" stroke="#128BF7" stroke-width="2.77778"></path>
                <path d="M92,56 L92,73.537514" id="Shape" stroke="#128BF7" stroke-width="2.77778"></path>
                <path d="M100.537514,65 L83,65" id="Shape" stroke="#128BF7" stroke-width="2.77778"></path>
                <path d="M61,157 L61,174.537514" id="Shape" stroke="#128BF7" stroke-width="2.77778"></path>
                <path d="M69.537514,166 L52,166" id="Shape" stroke="#128BF7" stroke-width="2.77778"></path>
                <path d="M291,56 L291,73.537514" id="Shape" stroke="#128BF7" stroke-width="2.77778"></path>
                <path d="M299.537514,65 L282,65" id="Shape" stroke="#128BF7" stroke-width="2.77778"></path>
                <path d="M344,86 L344,107" id="Shape" stroke="#128BF7" stroke-width="2.77778"></path>
                <path d="M354,97 L333,97" id="Shape" stroke="#128BF7" stroke-width="2.77778"></path>
            </g>
        </g>
    </g>
</svg>